<?xml version="1.0" encoding="UTF-8"?>
<svg version="1.1" xmlns="http://www.w3.org/2000/svg" width="577" height="433">
<path d="M0 0 C-0.44408774 5.77314056 -2.57437103 10.40109311 -6 15 C-8.45609164 17.09791161 -11.13754575 18.52138125 -14 20 C-30.52847057 28.6797555 -42.39298683 41.06894266 -48 59 C-48.37125 60.03125 -48.7425 61.0625 -49.125 62.125 C-49.558125 63.548125 -49.558125 63.548125 -50 65 C-50.2784375 65.88945312 -50.2784375 65.88945312 -50.5625 66.796875 C-55.13684852 83.69655147 -50.9253646 101.77331525 -43 117 C-39.56779307 122.3435557 -35.9079827 127.90856278 -31 132 C-28.49313122 132.27800084 -28.49313122 132.27800084 -25.81640625 131.734375 C-24.80513672 131.58613281 -23.79386719 131.43789063 -22.75195312 131.28515625 C-21.17317383 131.02025391 -21.17317383 131.02025391 -19.5625 130.75 C-6.31310806 128.65224954 5.80665963 128.6239885 19.0625 130.75 C20.14337891 130.90726563 21.22425781 131.06453125 22.33789062 131.2265625 C31.87729174 132.71262858 40.66398771 135.42015936 49.4375 139.4375 C51.78426227 140.47989104 51.78426227 140.47989104 54 141 C57.00120605 139.9363351 57.00120605 139.9363351 59 138 C59.66 138 60.32 138 61 138 C61.33 137.01 61.66 136.02 62 135 C62.66 135 63.32 135 64 135 C64 134.34 64 133.68 64 133 C65.14920716 131.97616089 66.34659048 131.00615653 67.5625 130.0625 C79.87886894 119.53048133 86.00795757 101.92870528 87.3203125 86.1484375 C87.72269196 76.57671914 86.0102568 68.11988986 83 59 C82.649375 57.86433594 82.29875 56.72867188 81.9375 55.55859375 C79.11983903 47.27193112 74.91034415 41.3911857 69 35 C68.38382813 34.28070313 67.76765625 33.56140625 67.1328125 32.8203125 C60.54244397 25.55110773 51.71014842 21.26883512 43 17 C42.83317728 12.07872966 42.75171948 8.49656104 45 4 C59.26994682 4.64863395 71.08040305 15.61531538 80.3828125 25.54296875 C85.64423855 31.86699653 89.93017428 38.86647473 94 46 C94.63615234 47.10408203 94.63615234 47.10408203 95.28515625 48.23046875 C103.67472557 64.72251186 103.52014894 89.52769539 98.65136719 107.04541016 C96.54205076 113.37494063 93.29504792 119.22366093 90 125 C89.2265625 126.37671875 89.2265625 126.37671875 88.4375 127.78125 C87.125 130 87.125 130 85 133 C84.34 133 83.68 133 83 133 C82.690625 133.61875 82.38125 134.2375 82.0625 134.875 C81.375 136.25 80.6875 137.625 80 139 C79.34 139 78.68 139 78 139 C77.34 140.32 76.68 141.64 76 143 C75.34 143 74.68 143 74 143 C74 143.66 74 144.32 74 145 C70.84011863 147.57064119 67.3891363 149.74384559 64 152 C63.36707031 152.44859375 62.73414063 152.8971875 62.08203125 153.359375 C44.38980226 165.38852848 21.71156111 168.48652959 0.9375 164.9375 C-13.07685275 162.17469019 -24.67097478 155.44089739 -36 147 C-37.485 146.01 -37.485 146.01 -39 145 C-39 144.34 -39 143.68 -39 143 C-39.556875 142.79375 -40.11375 142.5875 -40.6875 142.375 C-43.97012371 140.42316968 -45.70673246 138.05769006 -48 135 C-48 134.34 -48 133.68 -48 133 C-48.66 133 -49.32 133 -50 133 C-52.30469318 129.86228519 -54.10441407 126.3958838 -56 123 C-56.78503906 121.66195312 -56.78503906 121.66195312 -57.5859375 120.296875 C-68.17762385 101.0490389 -68.78902928 76.88027738 -63 56 C-56.68915409 36.57375665 -42.35945977 17.54208764 -24 8 C-19.72797413 6.14166875 -15.39922995 4.52969525 -11 3 C-10.08863281 2.67773438 -9.17726563 2.35546875 -8.23828125 2.0234375 C-2.36653037 0 -2.36653037 0 0 0 Z " fill="#FA6E6E" transform="translate(271,146)"/>
<path d="M0 0 C0.66 0 1.32 0 2 0 C1.45480881 8.16964303 -0.17073727 15.96898997 -2 23.9375 C-2.27328125 25.15501953 -2.5465625 26.37253906 -2.828125 27.62695312 C-4.83471386 36.50414157 -4.83471386 36.50414157 -6 40 C-1.05 40 3.9 40 9 40 C8.34323382 44.59736329 7.63917234 48.88353959 6.58984375 53.37109375 C6.32236328 54.52158203 6.05488281 55.67207031 5.77929688 56.85742188 C5.50150391 58.03884766 5.22371094 59.22027344 4.9375 60.4375 C4.65583984 61.64599609 4.37417969 62.85449219 4.08398438 64.09960938 C3.39197558 67.06703693 2.6972374 70.03379743 2 73 C2.71027344 73.06058594 3.42054688 73.12117188 4.15234375 73.18359375 C5.53099609 73.30927734 5.53099609 73.30927734 6.9375 73.4375 C8.31228516 73.55931641 8.31228516 73.55931641 9.71484375 73.68359375 C12 74 12 74 13 75 C13.04063832 76.66617115 13.042721 78.33388095 13 80 C14.22074219 80.42410156 15.44148438 80.84820312 16.69921875 81.28515625 C26.64069518 84.80468373 35.908286 88.62984936 45 94 C44.43434519 101.67846322 43.8123221 109.34343208 43 117 C45.64 117.33 48.28 117.66 51 118 C52.0562208 121.16866239 51.954206 122.44758635 51.44140625 125.66796875 C51.30283203 126.56064453 51.16425781 127.45332031 51.02148438 128.37304688 C50.87001953 129.30181641 50.71855469 130.23058594 50.5625 131.1875 C50.41490234 132.12787109 50.26730469 133.06824219 50.11523438 134.03710938 C49.74983611 136.35915639 49.37785875 138.67995362 49 141 C46.36 141 43.72 141 41 141 C40.84144531 142.20398438 40.68289063 143.40796875 40.51953125 144.6484375 C40.28505215 146.22413707 40.0493092 147.79964893 39.8125 149.375 C39.71130859 150.1690625 39.61011719 150.963125 39.50585938 151.78125 C39.38662109 152.54179687 39.26738281 153.30234375 39.14453125 154.0859375 C39.04503174 154.7876709 38.94553223 155.4894043 38.84301758 156.21240234 C38 158 38 158 35.84521484 159.14477539 C24.59579369 162.52616567 13.73393631 163.51013452 2.04907227 163.44604492 C-0.3008635 163.4375421 -2.64834912 163.4664234 -4.99804688 163.49804688 C-16.12091702 163.54900737 -26.26732444 161.82756558 -37 159 C-37.77505386 158.80061829 -38.55010773 158.60123657 -39.34864807 158.39581299 C-49.34131964 155.82009546 -57.25351835 152.64646284 -66 147 C-65.67 141.39 -65.34 135.78 -65 130 C-67.31 129.67 -69.62 129.34 -72 129 C-72.33 128.67 -72.66 128.34 -73 128 C-72.85993968 120.15662211 -71.96217882 112.58709144 -70 105 C-67.03 105.33 -64.06 105.66 -61 106 C-61.04125 104.618125 -61.0825 103.23625 -61.125 101.8125 C-61.10649845 97.50163952 -60.82207655 93.28139552 -60.3125 89 C-60.18488281 87.906875 -60.05726563 86.81375 -59.92578125 85.6875 C-59 83 -59 83 -56.91796875 81.72265625 C-53.29715582 80.82593551 -49.67569052 80.06380827 -46 79.4375 C-45.25758057 79.30819092 -44.51516113 79.17888184 -43.75024414 79.0456543 C-37.18442727 77.94560373 -30.6511321 77.3354484 -24 77 C-23.67 75.02 -23.34 73.04 -23 71 C-19.7 71 -16.4 71 -13 71 C-12.7525 69.906875 -12.505 68.81375 -12.25 67.6875 C-10.91790679 62.31086291 -8.95933279 57.17416039 -7 52 C-7.70511719 52.16371094 -8.41023438 52.32742187 -9.13671875 52.49609375 C-12.09658688 53.01699824 -14.81061273 53.09866732 -17.8125 53.0625 C-18.78832031 53.05347656 -19.76414062 53.04445312 -20.76953125 53.03515625 C-21.87361328 53.01775391 -21.87361328 53.01775391 -23 53 C-22.42348941 47.7870451 -20.71189496 43.76810978 -18.4375 39.125 C-18.08397461 38.38830078 -17.73044922 37.65160156 -17.36621094 36.89257812 C-14.55320753 31.05764799 -11.64920566 25.26784519 -8.73364258 19.48364258 C-5.52634311 13.10515284 -2.57755446 6.65868236 0 0 Z M-45 96 C-46.89395544 109.99353345 -48.48311477 123.883686 -49 138 C-27.48262956 146.53513154 1.5298254 154.36061773 24 145 C24.57393778 139.98338689 25.14346196 134.96629922 25.70898438 129.94873047 C25.90179554 128.24351632 26.09579104 126.53843563 26.29101562 124.83349609 C26.57216337 122.37632217 26.84898354 119.91869247 27.125 117.4609375 C27.25624268 116.32620499 27.25624268 116.32620499 27.39013672 115.16854858 C27.84380804 111.08807397 28.0910426 107.11398755 28 103 C5.11307589 93.40697011 -20.75284604 88.65735323 -45 96 Z " fill="#FA6D6D" transform="translate(299,107)"/>
<path d="M0 0 C14.26994682 0.64863395 26.08040305 11.61531538 35.3828125 21.54296875 C49 37.91029412 49 37.91029412 49 44 C45.25 45.125 45.25 45.125 43 44 C43.020625 43.2575 43.04125 42.515 43.0625 41.75 C43.00671312 39.29537721 42.6930096 37.33890739 42 35 C41.34 35 40.68 35 40 35 C40 33.68 40 32.36 40 31 C39.01 31 38.02 31 37 31 C36.814375 31.9590625 36.814375 31.9590625 36.625 32.9375 C36.41875 33.618125 36.2125 34.29875 36 35 C35.01 35.495 35.01 35.495 34 36 C33.34786708 38.02463255 33.34786708 38.02463255 33 40 C33.66 40 34.32 40 35 40 C35.99 42.64 36.98 45.28 38 48 C37.34 48.66 36.68 49.32 36 50 C35.8040625 49.46632812 35.608125 48.93265625 35.40625 48.3828125 C32.68682687 41.60769799 28.79637872 36.46008426 24 31 C23.40445312 30.29746094 22.80890625 29.59492188 22.1953125 28.87109375 C15.55539449 21.58998194 6.75058056 17.28865087 -2 13 C-2.16682272 8.07872966 -2.24828052 4.49656104 0 0 Z " fill="#F57274" transform="translate(316,150)"/>
<path d="M0 0 C0.66 0 1.32 0 2 0 C1.45480881 8.16964303 -0.17073727 15.96898997 -2 23.9375 C-2.27328125 25.15501953 -2.5465625 26.37253906 -2.828125 27.62695312 C-4.83471386 36.50414157 -4.83471386 36.50414157 -6 40 C-1.05 40 3.9 40 9 40 C8.67 42.31 8.34 44.62 8 47 C7.67 47 7.34 47 7 47 C7 45.35 7 43.7 7 42 C5.0412957 42.14076315 3.08303907 42.2877676 1.125 42.4375 C0.03445313 42.51871094 -1.05609375 42.59992188 -2.1796875 42.68359375 C-4.94728971 42.83001703 -4.94728971 42.83001703 -7 44 C-8 42 -8 42 -7.9375 38.5625 C-7.681137 34.89327313 -7.681137 34.89327313 -10 32 C-10.33 32.66 -10.66 33.32 -11 34 C-11.66 34 -12.32 34 -13 34 C-14.00217064 37.58327753 -14.00217064 37.58327753 -13 41 C-13.639375 41.598125 -14.27875 42.19625 -14.9375 42.8125 C-17.20310389 44.90810337 -17.20310389 44.90810337 -18 48 C-18.66 48 -19.32 48 -20 48 C-20 48.66 -20 49.32 -20 50 C-17.36 50.66 -14.72 51.32 -12 52 C-12 52.33 -12 52.66 -12 53 C-15.63 53 -19.26 53 -23 53 C-22.42348941 47.7870451 -20.71189496 43.76810978 -18.4375 39.125 C-18.08397461 38.38830078 -17.73044922 37.65160156 -17.36621094 36.89257812 C-14.55320753 31.05764799 -11.64920566 25.26784519 -8.73364258 19.48364258 C-5.52634311 13.10515284 -2.57755446 6.65868236 0 0 Z " fill="#EF7577" transform="translate(299,107)"/>
<path d="M0 0 C0.99 0.66 1.98 1.32 3 2 C3 2.66 3 3.32 3 4 C3.99 4.33 4.98 4.66 6 5 C7.38125018 7.76250036 7.19079306 9.94731099 7 13 C6.34 13.66 5.68 14.32 5 15 C1.5 14.875 1.5 14.875 -2 14 C-3.4375 11.9375 -3.4375 11.9375 -4 10 C-4.886875 10.680625 -5.77375 11.36125 -6.6875 12.0625 C-10 14 -10 14 -12.8125 13.875 C-15 13 -15 13 -16 11 C-16.625 8.25 -16.625 8.25 -16 5 C-11.21302337 0.21302337 -6.7079469 -2.14654301 0 0 Z " fill="#F66B6D" transform="translate(309,220)"/>
<path d="M0 0 C2.3125 1.75 2.3125 1.75 4 4 C4.86625 4.928125 4.86625 4.928125 5.75 5.875 C7.4140079 8.70381343 7.28661368 10.77559611 7 14 C6 15 6 15 2.5625 15.25 C1.386875 15.1675 0.21125 15.085 -1 15 C-1.66 14.01 -2.32 13.02 -3 12 C-5.75641416 12.49756092 -5.75641416 12.49756092 -8 14 C-10.9375 14.1875 -10.9375 14.1875 -14 14 C-16 12 -16 12 -16.0625 8.6875 C-14.83484333 4.42680922 -13.70564073 3.1612212 -10.0390625 0.8828125 C-6.39631368 -0.6943163 -3.94445852 -0.58196929 0 0 Z " fill="#F56A6D" transform="translate(277,216)"/>
<path d="M0 0 C-0.44346637 5.76506282 -2.56669666 10.41378492 -6 15 C-10.38677799 18.72462282 -15.69268742 20.89918877 -21 23 C-21.33 21.68 -21.66 20.36 -22 19 C-20.35 18.67 -18.7 18.34 -17 18 C-17 15.03 -17 12.06 -17 9 C-17.9075 9.350625 -18.815 9.70125 -19.75 10.0625 C-23.00591313 11.00170571 -23.92749994 10.95514676 -27 10 C-7.35573123 0 -7.35573123 0 0 0 Z " fill="#F37274" transform="translate(271,146)"/>
<path d="M0 0 C7.05433013 0.32065137 13.02603057 3.355788 19 7 C19.99 8.485 19.99 8.485 21 10 C20.01 10.495 20.01 10.495 19 11 C18.01 10.34 17.02 9.68 16 9 C13.66800612 8.92094936 11.33167378 8.91201231 9 9 C8.67 9.66 8.34 10.32 8 11 C7.67 11.33 7.34 11.66 7 12 C7.33 12.66 7.66 13.32 8 14 C2.58461538 15.23076923 2.58461538 15.23076923 -0.375 14.0625 C-0.91125 13.711875 -1.4475 13.36125 -2 13 C-2.16682272 8.07872966 -2.24828052 4.49656104 0 0 Z " fill="#F27173" transform="translate(316,150)"/>
<path d="M0 0 C0.75152344 0.84949219 1.50304687 1.69898438 2.27734375 2.57421875 C4.48927172 4.41047521 5.63470274 4.98107742 8.53564453 5.13134766 C11.57494271 4.81139406 14.55306314 4.34434214 17.5625 3.8125 C19.73753814 3.48846172 21.91332287 3.16939318 24.08984375 2.85546875 C25.12351074 2.70126465 26.15717773 2.54706055 27.22216797 2.38818359 C39.87375465 0.62020831 52.48788659 3.09968171 65 5 C65 5.33 65 5.66 65 6 C61.62501842 6.02922646 58.25006979 6.04687468 54.875 6.0625 C53.44800781 6.07506836 53.44800781 6.07506836 51.9921875 6.08789062 C47.17506906 6.10461673 42.75455061 5.80563219 38 5 C35.34800973 5.03539617 32.76455799 5.12583306 30.125 5.3125 C29.06055664 5.38090088 29.06055664 5.38090088 27.97460938 5.45068359 C24.37057779 5.71344303 20.96944445 6.10904714 17.5 7.125 C13.20451419 8.19887145 10.32740838 7.7727515 6 7 C5.67 7.66 5.34 8.32 5 9 C4.34 7.35 3.68 5.7 3 4 C1.68 4 0.36 4 -1 4 C-0.67 2.68 -0.34 1.36 0 0 Z " fill="#E99696" transform="translate(234,273)"/>
<path d="M0 0 C4.06776462 1.2297893 7.39925838 2.761038 11 5 C10.43434519 12.67846322 9.8123221 20.34343208 9 28 C11.64 28.33 14.28 28.66 17 29 C18.25985286 32.77955857 17.64024579 35.84423452 17.0625 39.6875 C16.91264648 40.7403418 16.91264648 40.7403418 16.75976562 41.81445312 C16.51270675 43.54386527 16.25717148 45.2720627 16 47 C15.67 47 15.34 47 15 47 C14.66507287 44.54187409 14.3319903 42.08352273 14 39.625 C13.85691406 38.57699219 13.85691406 38.57699219 13.7109375 37.5078125 C13 32.2265625 13 32.2265625 13 30 C11.02 30 9.04 30 7 30 C7.33 22.41 7.66 14.82 8 7 C7.01 6.67 6.02 6.34 5 6 C4.34 5.34 3.68 4.68 3 4 C2.01 3.34 1.02 2.68 0 2 C0 1.34 0 0.68 0 0 Z " fill="#E59294" transform="translate(333,196)"/>
<path d="M0 0 C0.33 0 0.66 0 1 0 C1.02698422 2.43757413 1.04683099 4.87484915 1.0625 7.3125 C1.07087891 8.00279297 1.07925781 8.69308594 1.08789062 9.40429688 C1.10307906 12.5483025 1.00193327 14.99420019 0 18 C-0.66 18 -1.32 18 -2 18 C-2 18.66 -2 19.32 -2 20 C-11.35031825 21.5003376 -20.46696918 22.1936808 -29.9375 22.1875 C-31.40340576 22.1884668 -31.40340576 22.1884668 -32.89892578 22.18945312 C-39.864901 22.135099 -39.864901 22.135099 -41 21 C-42.34747084 20.76924918 -43.70377565 20.58846937 -45.0625 20.4375 C-46.361875 20.293125 -47.66125 20.14875 -49 20 C-49 19.34 -49 18.68 -49 18 C-48.01902344 18.0721875 -47.03804688 18.144375 -46.02734375 18.21875 C-31.08561805 19.26788166 -15.74503627 20.16725508 -1 17 C-1.01160156 16.443125 -1.02320313 15.88625 -1.03515625 15.3125 C-1.09676433 10.10221657 -0.74999344 5.1562049 0 0 Z " fill="#E89D9E" transform="translate(324,235)"/>
<path d="M0 0 C0.99 0.66 1.98 1.32 3 2 C3 2.66 3 3.32 3 4 C2.01 4 1.02 4 0 4 C0 3.34 0 2.68 0 2 C-0.61875 1.855625 -1.2375 1.71125 -1.875 1.5625 C-4 1 -4 1 -6 0 C-5.67 0.99 -5.34 1.98 -5 3 C-5.66 3.66 -6.32 4.32 -7 5 C-7 6.32 -7 7.64 -7 9 C-7.99 9.495 -7.99 9.495 -9 10 C-8.01 10.33 -7.02 10.66 -6 11 C-7.6875 12.5625 -7.6875 12.5625 -10 14 C-12.6875 13.8125 -12.6875 13.8125 -15 13 C-16.53359431 9.93281139 -16.65552102 8.40870931 -16 5 C-11.21302337 0.21302337 -6.7079469 -2.14654301 0 0 Z " fill="#F0797B" transform="translate(309,220)"/>
<path d="M0 0 C1.32 0 2.64 0 4 0 C4 0.66 4 1.32 4 2 C3.01 2 2.02 2 1 2 C0.93941406 3.10859375 0.87882813 4.2171875 0.81640625 5.359375 C0.73197049 6.8229282 0.64732401 8.28646925 0.5625 9.75 C0.52318359 10.47960937 0.48386719 11.20921875 0.44335938 11.9609375 C0.23852902 15.4272973 -0.0852002 18.65333026 -1 22 C0.7015625 21.9690625 0.7015625 21.9690625 2.4375 21.9375 C6 22 6 22 7 23 C7.08631874 24.34267413 7.10706473 25.68974322 7.09765625 27.03515625 C7.09443359 27.84404297 7.09121094 28.65292969 7.08789062 29.48632812 C7.07951172 30.33646484 7.07113281 31.18660156 7.0625 32.0625 C7.05798828 32.91650391 7.05347656 33.77050781 7.04882812 34.65039062 C7.03700373 36.76695663 7.01906769 38.88348685 7 41 C7.66 41.33 8.32 41.66 9 42 C9 42.66 9 43.32 9 44 C7.35 43.34 5.7 42.68 4 42 C4.33 36.39 4.66 30.78 5 25 C2.69 24.67 0.38 24.34 -2 24 C-2.33 23.67 -2.66 23.34 -3 23 C-2.85993968 15.15662211 -1.96217882 7.58709144 0 0 Z " fill="#E5888C" transform="translate(229,212)"/>
<path d="M0 0 C6.504795 0.433653 17.16560853 1.16560853 22 6 C22.54346208 14.85969583 21.77948813 23.32499537 20 32 C19.34 32 18.68 32 18 32 C18.33 23.75 18.66 15.5 19 7 C12.73 5.02 6.46 3.04 0 1 C0 0.67 0 0.34 0 0 Z " fill="#E77D82" transform="translate(307,203)"/>
<path d="M0 0 C0.66 0 1.32 0 2 0 C1.42029353 8.49569832 -0.23801701 16.68875949 -2 25 C-2.474375 24.34 -2.94875 23.68 -3.4375 23 C-3.953125 22.34 -4.46875 21.68 -5 21 C-6.36893239 20.94729537 -6.36893239 20.94729537 -9 22 C-7.14519293 17.28681874 -5.13717068 12.64258559 -3.12304688 7.99609375 C-1.98200645 5.34979053 -0.91191514 2.73574541 0 0 Z " fill="#E57C7F" transform="translate(299,107)"/>
<path d="M0 0 C0.99 0.495 0.99 0.495 2 1 C2 1.66 2 2.32 2 3 C2.66 3 3.32 3 4 3 C6.93132228 11.16582636 8.19209676 18.45421848 8.25 27.0625 C8.25918457 27.81821289 8.26836914 28.57392578 8.27783203 29.35253906 C8.2496436 34.53695599 7.42599151 39.01468842 6 44 C5.34 44 4.68 44 4 44 C3.67 44.66 3.34 45.32 3 46 C3.144375 45.3915625 3.28875 44.783125 3.4375 44.15625 C6.4721691 29.82586816 5.30533859 17.76325109 1 4 C0.65456431 2.66975075 0.31459987 1.33787735 0 0 Z " fill="#E47F7E" transform="translate(353,201)"/>
<path d="M0 0 C0.66 0 1.32 0 2 0 C1.56901343 8.96452064 -0.69889434 17.37352947 -3 26 C-1.93458984 26.09087891 -1.93458984 26.09087891 -0.84765625 26.18359375 C0.07144531 26.26738281 0.99054688 26.35117188 1.9375 26.4375 C3.31228516 26.55931641 3.31228516 26.55931641 4.71484375 26.68359375 C7 27 7 27 8 28 C8.04063832 29.66617115 8.042721 31.33388095 8 33 C7.01 33.495 7.01 33.495 6 34 C6 32.02 6 30.04 6 28 C2.7 28 -0.6 28 -4 28 C-5.09955923 23.19859138 -4.75727923 19.71073217 -3.625 14.9375 C-3.34914063 13.75027344 -3.07328125 12.56304687 -2.7890625 11.33984375 C-2.52867187 10.23769531 -2.26828125 9.13554687 -2 8 C-1.82210938 7.09378906 -1.64421875 6.18757812 -1.4609375 5.25390625 C-1 3 -1 3 0 0 Z " fill="#E88E91" transform="translate(304,154)"/>
<path d="M0 0 C1.27875 -0.061875 2.5575 -0.12375 3.875 -0.1875 C4.95394531 -0.23970703 4.95394531 -0.23970703 6.0546875 -0.29296875 C6.69664062 -0.19628906 7.33859375 -0.09960938 8 0 C10 3 10 3 10 6 C11.65 6.33 13.3 6.66 15 7 C15 7.99 15 8.98 15 10 C14.01 10 13.02 10 12 10 C12 10.66 12 11.32 12 12 C10.35 11.67 8.7 11.34 7 11 C7 10.34 7 9.68 7 9 C6.175 8.360625 5.35 7.72125 4.5 7.0625 C3.675 6.381875 2.85 5.70125 2 5 C2 4.01 2 3.02 2 2 C1.34 2 0.68 2 0 2 C0 1.34 0 0.68 0 0 Z " fill="#F56C6D" transform="translate(269,218)"/>
<path d="M0 0 C3.14203632 4.71305448 4.61379651 8.86586572 5.625 14.4375 C5.75688721 15.16380615 5.88877441 15.8901123 6.0246582 16.63842773 C7.55433431 26.04489756 7.25063784 35.50361054 7 45 C6.34 45 5.68 45 5 45 C4.96261719 43.741875 4.92523438 42.48375 4.88671875 41.1875 C4.53274873 31.38887889 3.69329087 22.05775899 1.69921875 12.45703125 C0.85970052 8.30634055 0.37630738 4.21464265 0 0 Z " fill="#E69093" transform="translate(365,194)"/>
<path d="M0 0 C0.66 0 1.32 0 2 0 C1.52729457 2.67866408 0.9414016 5.17188864 0.0625 7.75 C-4.15731736 20.65767663 -4.13381333 33.79321524 -1 47 C-1.66 47 -2.32 47 -3 47 C-5.0109413 43.65407661 -5.24621641 41.11313233 -5.23046875 37.23828125 C-5.22853516 36.11873047 -5.22660156 34.99917969 -5.22460938 33.84570312 C-5.21236328 32.67974609 -5.20011719 31.51378906 -5.1875 30.3125 C-5.18685547 29.16587891 -5.18621094 28.01925781 -5.18554688 26.83789062 C-5.15279362 20.48012006 -4.83898823 14.30247956 -4 8 C-3.34 8 -2.68 8 -2 8 C-1.855625 7.236875 -1.71125 6.47375 -1.5625 5.6875 C-1 3 -1 3 0 0 Z " fill="#DF7376" transform="translate(222,200)"/>
<path d="M0 0 C0.66 0.33 1.32 0.66 2 1 C0.75004375 4.74986874 -0.90091854 5.62163516 -4 8 C-4.70125 8.721875 -5.4025 9.44375 -6.125 10.1875 C-8 12 -8 12 -11 13 C-11 13.99 -11 14.98 -11 16 C-14 18 -14 18 -18 18 C-16.41092475 13.85074796 -13.36467701 11.31591806 -10.125 8.4375 C-9.59519531 7.95603516 -9.06539062 7.47457031 -8.51953125 6.97851562 C-5.77768026 4.50540685 -3.00076351 2.15272165 0 0 Z " fill="#EA9090" transform="translate(242,157)"/>
<path d="M0 0 C4.3819124 1.46063747 6.94711941 5.01202704 9 9 C9 10.32 9 11.64 9 13 C9.99 13.33 10.98 13.66 12 14 C12 14.99 12 15.98 12 17 C14.475 17.99 14.475 17.99 17 19 C16.34 20.32 15.68 21.64 15 23 C13.99406757 21.8803014 12.9954151 20.7540588 12 19.625 C11.1646875 18.68527344 11.1646875 18.68527344 10.3125 17.7265625 C9 16 9 16 9 14 C8.34 14 7.68 14 7 14 C5.52734375 11.953125 5.52734375 11.953125 3.9375 9.25 C3.41027344 8.36828125 2.88304687 7.4865625 2.33984375 6.578125 C1.17160513 4.3302023 0.46779218 2.47179076 0 0 Z " fill="#E88487" transform="translate(214,265)"/>
<path d="M0 0 C4.31305552 0.30512503 8.62531495 0.62032833 12.9375 0.9375 C14.78504883 1.06801758 14.78504883 1.06801758 16.66992188 1.20117188 C17.83974609 1.28818359 19.00957031 1.37519531 20.21484375 1.46484375 C21.84087524 1.58267212 21.84087524 1.58267212 23.49975586 1.70288086 C26 2 26 2 27 3 C29.32817964 3.36760731 31.6618385 3.70241581 34 4 C34 4.33 34 4.66 34 5 C22.07097282 5.5850749 11.5442203 3.992946 0 1 C0 0.67 0 0.34 0 0 Z " fill="#E58587" transform="translate(262,265)"/>
<path d="M0 0 C0.66 0 1.32 0 2 0 C2 1.65 2 3.3 2 5 C2.78375 5.0825 3.5675 5.165 4.375 5.25 C7.48411856 5.89326591 9.91119873 6.71994923 12.8125 7.9375 C17.49824563 9.89285667 22.01989851 11.03610939 27 12 C27 12.33 27 12.66 27 13 C20.52585082 13.48657489 15.86273366 12.94095816 10.04296875 10.015625 C7.82159276 8.84992306 7.82159276 8.84992306 4.5625 7.875 C2 7 2 7 0 5 C-0.125 2.375 -0.125 2.375 0 0 Z " fill="#E68C8E" transform="translate(248,240)"/>
<path d="M0 0 C0 0.66 0 1.32 0 2 C-1.12535156 2.32613281 -2.25070313 2.65226563 -3.41015625 2.98828125 C-5.37337693 3.74777214 -5.37337693 3.74777214 -7 5 C-7.89358285 8.02323674 -8.28501159 10.12435557 -8.4375 13.1875 C-8.53321289 14.31188477 -8.53321289 14.31188477 -8.63085938 15.45898438 C-8.78361235 17.30377035 -8.89578824 19.1518364 -9 21 C-9.33 21 -9.66 21 -10 21 C-10.22370596 18.79317093 -10.42830391 16.58440027 -10.625 14.375 C-10.74101562 13.14523438 -10.85703125 11.91546875 -10.9765625 10.6484375 C-11.00051931 6.91916081 -10.4904828 4.4009642 -9 1 C-6.14297313 -0.37925435 -3.13680281 -0.08713341 0 0 Z " fill="#E98689" transform="translate(250,188)"/>
<path d="M0 0 C4.17906895 3.55994763 6.68559431 8.08663054 9 13 C9 13.66 9 14.32 9 15 C5.25 16.125 5.25 16.125 3 15 C3.020625 14.2575 3.04125 13.515 3.0625 12.75 C3.00671312 10.29537721 2.6930096 8.33890739 2 6 C1.34 6 0.68 6 0 6 C0 4.02 0 2.04 0 0 Z " fill="#EC8589" transform="translate(356,179)"/>
<path d="M0 0 C0.33 0 0.66 0 1 0 C1.38281159 5.23175837 0.21854707 8.37802694 -2 13 C-4.97 13 -7.94 13 -11 13 C-11 14.65 -11 16.3 -11 18 C-11.66 18.33 -12.32 18.66 -13 19 C-13 16.36 -13 13.72 -13 11 C-9.7 11 -6.4 11 -3 11 C-2.690625 9.741875 -2.38125 8.48375 -2.0625 7.1875 C-1.46021952 4.73822606 -0.79911359 2.39734077 0 0 Z " fill="#E17B7F" transform="translate(289,167)"/>
<path d="M0 0 C0.99 0.495 0.99 0.495 2 1 C2 1.99 2 2.98 2 4 C6.95 4 11.9 4 17 4 C16.67 6.31 16.34 8.62 16 11 C15.67 11 15.34 11 15 11 C15 9.35 15 7.7 15 6 C13.0412957 6.14076315 11.08303907 6.2877676 9.125 6.4375 C7.48917969 6.55931641 7.48917969 6.55931641 5.8203125 6.68359375 C3.05271029 6.83001703 3.05271029 6.83001703 1 8 C-0.35439668 5.29120665 -0.06501451 2.99066732 0 0 Z " fill="#E28587" transform="translate(291,143)"/>
<path d="M0 0 C5.28 0.33 10.56 0.66 16 1 C16 1.66 16 2.32 16 3 C20.95 3 25.9 3 31 3 C31 3.33 31 3.66 31 4 C27.35418313 4.02887512 23.70839537 4.04675585 20.0625 4.0625 C19.02158203 4.07087891 17.98066406 4.07925781 16.90820312 4.08789062 C15.42416992 4.09272461 15.42416992 4.09272461 13.91015625 4.09765625 C12.53549194 4.10551147 12.53549194 4.10551147 11.13305664 4.11352539 C9 4 9 4 8 3 C6.65252916 2.76924918 5.29622435 2.58846937 3.9375 2.4375 C2.638125 2.293125 1.33875 2.14875 0 2 C0 1.34 0 0.68 0 0 Z " fill="#E58383" transform="translate(275,253)"/>
<path d="M0 0 C1.32 0 2.64 0 4 0 C4 0.66 4 1.32 4 2 C3.01 2 2.02 2 1 2 C0.67 8.93 0.34 15.86 0 23 C-0.99 23 -1.98 23 -3 23 C-2.57477229 15.1332874 -1.97537032 7.63809855 0 0 Z " fill="#E2989B" transform="translate(229,212)"/>
<path d="M0 0 C0.33 0 0.66 0 1 0 C0.67 3.63 0.34 7.26 0 11 C-0.66 11 -1.32 11 -2 11 C-2.33 15.29 -2.66 19.58 -3 24 C-3.66 24 -4.32 24 -5 24 C-5.27338172 17.93092582 -4.46092445 13.22377946 -2.5 7.5 C-2.26152344 6.77296875 -2.02304688 6.0459375 -1.77734375 5.296875 C-1.19539824 3.52776065 -0.59919543 1.76334654 0 0 Z " fill="#E98F91" transform="translate(211,194)"/>
<path d="M0 0 C0.66 0 1.32 0 2 0 C1.42029353 8.49569832 -0.23801701 16.68875949 -2 25 C-2.33 25 -2.66 25 -3 25 C-2.91621094 23.95199219 -2.83242188 22.90398437 -2.74609375 21.82421875 C-2.64291206 20.44533619 -2.54006494 19.06642857 -2.4375 17.6875 C-2.38142578 16.99720703 -2.32535156 16.30691406 -2.26757812 15.59570312 C-2.03418495 12.37487726 -1.96775782 10.09672655 -3 7 C-2.07796291 4.63477442 -1.08301035 2.29598193 0 0 Z " fill="#E1AAB0" transform="translate(299,107)"/>
<path d="M0 0 C2.31 0.33 4.62 0.66 7 1 C7.33 1.99 7.66 2.98 8 4 C8.87011719 3.96519531 8.87011719 3.96519531 9.7578125 3.9296875 C14.61411166 3.81749577 18.42932395 4.12485085 23 6 C22.34 6.66 21.68 7.32 21 8 C13.65029064 7.46221639 6.42576988 4.46002993 0 1 C0 0.67 0 0.34 0 0 Z " fill="#EA9193" transform="translate(238,256)"/>
<path d="M0 0 C3 1 3 1 4 3 C4.1875 6 4.1875 6 4 9 C3.34 9.66 2.68 10.32 2 11 C-1.5 10.8125 -1.5 10.8125 -5 10 C-5.66 9.01 -6.32 8.02 -7 7 C-2.545 7.99 -2.545 7.99 2 9 C1.67 8.2575 1.34 7.515 1 6.75 C0 4 0 4 0 0 Z " fill="#E59291" transform="translate(312,224)"/>
<path d="M0 0 C0.99 0.33 1.98 0.66 3 1 C1.625 3.5 1.625 3.5 0 6 C-0.66 6 -1.32 6 -2 6 C-2.309375 6.61875 -2.61875 7.2375 -2.9375 7.875 C-3.625 9.25 -4.3125 10.625 -5 12 C-5.66 12 -6.32 12 -7 12 C-7.33 12.66 -7.66 13.32 -8 14 C-8 11.37886292 -7.68707555 9.49064888 -7 7 C-6.34 7 -5.68 7 -5 7 C-4.67 6.01 -4.34 5.02 -4 4 C-3.01 4 -2.02 4 -1 4 C-0.67 2.68 -0.34 1.36 0 0 Z " fill="#E79599" transform="translate(356,273)"/>
<path d="M0 0 C3.28320608 2.39585308 5.04096682 5.47374027 7 9 C4 9 4 9 2 8 C1.27840576 6.35636866 0.60648579 4.68949614 0 3 C-2.64 2.67 -5.28 2.34 -8 2 C-8.33 2.66 -8.66 3.32 -9 4 C-9.66 3.34 -10.32 2.68 -11 2 C-7.32144312 -0.45237125 -4.2749625 -0.70095539 0 0 Z " fill="#E68C8D" transform="translate(277,216)"/>
<path d="M0 0 C0.66 0.33 1.32 0.66 2 1 C1.67 3.31 1.34 5.62 1 8 C1.71027344 8.06058594 2.42054688 8.12117187 3.15234375 8.18359375 C4.07144531 8.26738281 4.99054688 8.35117188 5.9375 8.4375 C7.31228516 8.55931641 7.31228516 8.55931641 8.71484375 8.68359375 C11 9 11 9 12 10 C12.04063832 11.66617115 12.042721 13.33388095 12 15 C11.01 15.495 11.01 15.495 10 16 C10 14.02 10 12.04 10 10 C6.7 10 3.4 10 0 10 C-0.74926071 6.33694766 -1.2380014 3.57644848 0 0 Z " fill="#E49696" transform="translate(300,172)"/>
<path d="M0 0 C7.49440349 0.4996269 13.95650263 2.43764478 21 5 C21 7.31 21 9.62 21 12 C20.67 12 20.34 12 20 12 C19.67 10.35 19.34 8.7 19 7 C12.73 5.02 6.46 3.04 0 1 C0 0.67 0 0.34 0 0 Z " fill="#E69093" transform="translate(307,203)"/>
<path d="M0 0 C2.97 0.495 2.97 0.495 6 1 C6.33 1.99 6.66 2.98 7 4 C9.01508358 4.73323796 9.01508358 4.73323796 11 5 C11 4.34 11 3.68 11 3 C11.99 3 12.98 3 14 3 C13.67 3.99 13.34 4.98 13 6 C9.625 6.1875 9.625 6.1875 6 6 C5.34 5.01 4.68 4.02 4 3 C1.24358584 3.49756092 1.24358584 3.49756092 -1 5 C-2.99958364 5.04080783 -5.00045254 5.04254356 -7 5 C-7 4.67 -7 4.34 -7 4 C-5.35 4 -3.7 4 -2 4 C-2 3.34 -2 2.68 -2 2 C-1.34 2 -0.68 2 0 2 C0 1.34 0 0.68 0 0 Z " fill="#E89697" transform="translate(270,225)"/>
<path d="M0 0 C0.33 0 0.66 0 1 0 C1.11261934 6.08144434 0.68656524 11.96008146 0 18 C-0.09539062 18.87011719 -0.19078125 19.74023438 -0.2890625 20.63671875 C-0.52219655 22.75823857 -0.76055297 24.87918343 -1 27 C-1.33 27 -1.66 27 -2 27 C-2.05827558 23.4375692 -2.09368885 19.87526181 -2.125 16.3125 C-2.14175781 15.30509766 -2.15851563 14.29769531 -2.17578125 13.25976562 C-2.18544922 11.79506836 -2.18544922 11.79506836 -2.1953125 10.30078125 C-2.20578613 9.40528564 -2.21625977 8.50979004 -2.22705078 7.5871582 C-1.97703456 4.73831743 -1.18016512 2.59105457 0 0 Z " fill="#E49290" transform="translate(252,213)"/>
<path d="M0 0 C-2.50040308 2.50040308 -4.33358691 2.78364454 -7.75 3.625 C-9.28914063 4.01558594 -9.28914063 4.01558594 -10.859375 4.4140625 C-13.98495856 4.99719376 -16.82889349 5.10443764 -20 5 C-20 4.34 -20 3.68 -20 3 C-17.36 3 -14.72 3 -12 3 C-12 2.34 -12 1.68 -12 1 C-7.95858806 0.36605303 -4.0934693 -0.12404452 0 0 Z " fill="#E78685" transform="translate(317,306)"/>
<path d="M0 0 C0.33 0.66 0.66 1.32 1 2 C-1.82352941 9.76470588 -1.82352941 9.76470588 -5 12 C-8.1875 13.1875 -8.1875 13.1875 -11 14 C-10.62488281 13.57589844 -10.24976563 13.15179688 -9.86328125 12.71484375 C-6.30335421 8.63482662 -3.08682003 4.4486524 0 0 Z " fill="#E98F92" transform="translate(348,265)"/>
<path d="M0 0 C0.66 0.33 1.32 0.66 2 1 C1.39301257 5.12751449 -0.03810791 8.3321148 -2 12 C-2.33 12 -2.66 12 -3 12 C-3 10.35 -3 8.7 -3 7 C-3.66 6.67 -4.32 6.34 -5 6 C-4.34 4.35 -3.68 2.7 -3 1 C-2.34 1.33 -1.68 1.66 -1 2 C-0.67 1.34 -0.34 0.68 0 0 Z " fill="#EE8482" transform="translate(367,251)"/>
<path d="M0 0 C0.66 0 1.32 0 2 0 C1.52729457 2.67866408 0.9414016 5.17188864 0.0625 7.75 C-1.25486792 11.779596 -2.13390699 15.85381008 -3 20 C-3.33 20 -3.66 20 -4 20 C-4 16.04 -4 12.08 -4 8 C-3.34 8 -2.68 8 -2 8 C-1.855625 7.236875 -1.71125 6.47375 -1.5625 5.6875 C-1 3 -1 3 0 0 Z " fill="#E57F88" transform="translate(222,200)"/>
<path d="M0 0 C0.33 0 0.66 0 1 0 C0.91306859 1.79258558 0.80489496 3.58415144 0.6875 5.375 C0.62949219 6.37273437 0.57148438 7.37046875 0.51171875 8.3984375 C0.34285156 9.25695312 0.17398437 10.11546875 0 11 C-0.99 11.66 -1.98 12.32 -3 13 C-3.33 13.99 -3.66 14.98 -4 16 C-4.66 16 -5.32 16 -6 16 C-4.56176509 10.36691325 -2.45855991 5.26322777 0 0 Z " fill="#EA9191" transform="translate(355,249)"/>
<path d="M0 0 C1.175625 1.2065625 1.175625 1.2065625 2.375 2.4375 C6.43820536 5.89513149 10.84620904 5.88796107 16 6 C15.34 6.66 14.68 7.32 14 8 C11.27130593 7.96712417 8.7033382 7.43602229 6 7 C5.67 7.66 5.34 8.32 5 9 C4.34 7.35 3.68 5.7 3 4 C1.68 4 0.36 4 -1 4 C-0.67 2.68 -0.34 1.36 0 0 Z " fill="#E87573" transform="translate(234,273)"/>
<path d="M0 0 C0.66 0 1.32 0 2 0 C2 1.65 2 3.3 2 5 C1.34 5 0.68 5 0 5 C0 5.66 0 6.32 0 7 C2.64 7.66 5.28 8.32 8 9 C8 9.33 8 9.66 8 10 C4.37 10 0.74 10 -3 10 C-2.49287967 6.28111761 -1.88391785 3.26545761 0 0 Z " fill="#ED9598" transform="translate(279,150)"/>
<path d="M0 0 C3.99496002 0.43468477 6.55106513 1.77462777 9.8125 4.0625 C10.60269531 4.61035156 11.39289063 5.15820312 12.20703125 5.72265625 C12.79871094 6.14417969 13.39039063 6.56570312 14 7 C13.34 7.66 12.68 8.32 12 9 C10 7.625 10 7.625 8 6 C8 5.34 8 4.68 8 4 C7.071875 3.87625 6.14375 3.7525 5.1875 3.625 C2 3 2 3 -1 1 C-0.67 0.67 -0.34 0.34 0 0 Z " fill="#E8989A" transform="translate(323,152)"/>
<path d="M0 0 C1.32 0.33 2.64 0.66 4 1 C3.67 5.95 3.34 10.9 3 16 C2.67 16 2.34 16 2 16 C1.34 10.72 0.68 5.44 0 0 Z " fill="#EC878C" transform="translate(346,227)"/>
<path d="M0 0 C0.33 0.66 0.66 1.32 1 2 C0.06421005 4.35981813 -0.93347808 6.69631264 -2 9 C-2.66 9 -3.32 9 -4 9 C-4.33 10.65 -4.66 12.3 -5 14 C-5.66 13.67 -6.32 13.34 -7 13 C-5.58832253 7.73829306 -3.25149768 4.27828642 0 0 Z " fill="#E98B8E" transform="translate(219,181)"/>
<path d="M0 0 C0 0.33 0 0.66 0 1 C-0.9075 1.12375 -1.815 1.2475 -2.75 1.375 C-5.87282614 1.79588971 -5.87282614 1.79588971 -7.875 3.0625 C-10.58440091 4.25782393 -12.33503137 4.0085485 -15.25 3.625 C-16.14203125 3.51414063 -17.0340625 3.40328125 -17.953125 3.2890625 C-18.62859375 3.19367188 -19.3040625 3.09828125 -20 3 C-20 2.67 -20 2.34 -20 2 C-13.25846717 0.74158054 -6.86515862 -0.26404456 0 0 Z " fill="#EC9999" transform="translate(270,185)"/>
<path d="M0 0 C0.99 0.495 0.99 0.495 2 1 C2 1.66 2 2.32 2 3 C2.66 3 3.32 3 4 3 C6.27141454 8.39460953 6.20413361 13.26157749 6 19 C5.67 19 5.34 19 5 19 C4.35377959 16.58343624 3.70800996 14.16675354 3.0625 11.75 C2.88009766 11.06808594 2.69769531 10.38617188 2.50976562 9.68359375 C1.64946879 6.46139106 0.79316866 3.23946777 0 0 Z " fill="#EC989B" transform="translate(353,201)"/>
<path d="M0 0 C0.66 1.32 1.32 2.64 2 4 C-1.19990508 6.74277578 -4.00499382 8.6302836 -8 10 C-8 7 -8 7 -6.75 5.375 C-5 4 -5 4 -2.875 3.5 C-2.25625 3.335 -1.6375 3.17 -1 3 C-0.67 2.01 -0.34 1.02 0 0 Z " fill="#EA858B" transform="translate(264,156)"/>
<path d="M0 0 C-0.45336079 4.87362847 -1.7089159 7.39042389 -5 11 C-5 7.7 -5 4.4 -5 1 C-2 0 -2 0 0 0 Z " fill="#E88D93" transform="translate(271,146)"/>
<path d="M0 0 C2.475 0.495 2.475 0.495 5 1 C5 1.99 5 2.98 5 4 C7.475 4.99 7.475 4.99 10 6 C9.34 7.32 8.68 8.64 8 10 C6.99406757 8.8803014 5.9954151 7.7540588 5 6.625 C4.443125 5.99851562 3.88625 5.37203125 3.3125 4.7265625 C2 3 2 3 2 1 C1.34 0.67 0.68 0.34 0 0 Z " fill="#EC9496" transform="translate(221,278)"/>
<path d="M0 0 C5.06998019 0.65419099 9.41990777 2.8546409 14 5 C14 5.33 14 5.66 14 6 C7.375 6.25 7.375 6.25 4 4 C4 3.34 4 2.68 4 2 C2.68 2 1.36 2 0 2 C0 1.34 0 0.68 0 0 Z " fill="#E9979B" transform="translate(310,282)"/>
<path d="M0 0 C1.32 0.66 2.64 1.32 4 2 C3.01 2 2.02 2 1 2 C1 4.97 1 7.94 1 11 C-0.32 10.34 -1.64 9.68 -3 9 C-2.69181644 7.68647977 -2.37832335 6.37420428 -2.0625 5.0625 C-1.88847656 4.33160156 -1.71445313 3.60070312 -1.53515625 2.84765625 C-1 1 -1 1 0 0 Z " fill="#F3898D" transform="translate(253,201)"/>
<path d="M0 0 C0.66 0 1.32 0 2 0 C0.59155282 3.21524305 -1.10344786 5.32183868 -3.625 7.75 C-4.57246094 8.67039063 -4.57246094 8.67039063 -5.5390625 9.609375 C-6.02117187 10.06828125 -6.50328125 10.5271875 -7 11 C-7.33 10.01 -7.66 9.02 -8 8 C-7.34 8 -6.68 8 -6 8 C-5.7525 7.38125 -5.505 6.7625 -5.25 6.125 C-3.79371361 3.64931313 -2.62187494 3.04874998 0 2 C0 1.34 0 0.68 0 0 Z " fill="#E48D92" transform="translate(242,172)"/>
<path d="M0 0 C0.33 1.32 0.66 2.64 1 4 C-2.82989106 5.80230168 -5.78121808 6.19622241 -10 6 C-7.997499 3.997499 -6.593341 3.06784629 -4 2 C-2.68 2 -1.36 2 0 2 C0 1.34 0 0.68 0 0 Z " fill="#E39192" transform="translate(336,261)"/>
<path d="M0 0 C3.3 0 6.6 0 10 0 C8.3125 2.0625 8.3125 2.0625 6 4 C3.25 3.75 3.25 3.75 1 3 C0.67 2.01 0.34 1.02 0 0 Z " fill="#E39B9C" transform="translate(293,230)"/>
<path d="M0 0 C1 2 1 2 0.44140625 3.9453125 C0.15136719 4.66460937 -0.13867188 5.38390625 -0.4375 6.125 C-0.72496094 6.84945312 -1.01242187 7.57390625 -1.30859375 8.3203125 C-1.53675781 8.87460938 -1.76492188 9.42890625 -2 10 C-2.66 9.67 -3.32 9.34 -4 9 C-3.6875 5.625 -3.6875 5.625 -3 2 C-2.01 1.34 -1.02 0.68 0 0 Z " fill="#E38688" transform="translate(265,219)"/>
<path d="M0 0 C0.99 0.33 1.98 0.66 3 1 C3 1.99 3 2.98 3 4 C0 6 0 6 -4 6 C-2.84826645 3.53199953 -1.95216435 1.95216435 0 0 Z " fill="#EB8483" transform="translate(228,169)"/>
<path d="M0 0 C2.34914492 2.34914492 2.73140357 3.95679446 3.625 7.125 C3.88539063 8.03507812 4.14578125 8.94515625 4.4140625 9.8828125 C4.70410156 10.93082031 4.70410156 10.93082031 5 12 C2 11 2 11 0.8125 9.375 C-0.27499354 6.19617272 -0.1282071 3.33338467 0 0 Z " fill="#E69194" transform="translate(221,249)"/>
<path d="M0 0 C1.15224028 0.92961422 2.29659176 1.8690125 3.4375 2.8125 C4.07558594 3.33457031 4.71367187 3.85664063 5.37109375 4.39453125 C7 6 7 6 8 9 C7.01 8.67 6.02 8.34 5 8 C5 7.34 5 6.68 5 6 C3.35 5.67 1.7 5.34 0 5 C0 3.35 0 1.7 0 0 Z " fill="#E89897" transform="translate(344,165)"/>
<path d="M0 0 C2.35953094 2.35953094 2.49141413 3.77895617 3 7 C1.35 6.67 -0.3 6.34 -2 6 C-1.125 1.125 -1.125 1.125 0 0 Z M2 0 C5 1 5 1 5 1 Z " fill="#FC6866" transform="translate(250,156)"/>
<path d="M0 0 C0.66 0.33 1.32 0.66 2 1 C1.67 1.66 1.34 2.32 1 3 C0.34 3 -0.32 3 -1 3 C-1.144375 3.639375 -1.28875 4.27875 -1.4375 4.9375 C-2 7 -2 7 -3 8 C-4.66617115 8.04063832 -6.33388095 8.042721 -8 8 C-6.625 6.5 -6.625 6.5 -5 5 C-4.34 5 -3.68 5 -3 5 C-2.67 4.01 -2.34 3.02 -2 2 C-1.34 2 -0.68 2 0 2 C0 1.34 0 0.68 0 0 Z " fill="#E99699" transform="translate(335,279)"/>
<path d="M0 0 C1.890625 0.24609375 1.890625 0.24609375 4 1 C5.046875 2.84765625 5.046875 2.84765625 5.75 5.0625 C5.99234375 5.79597656 6.2346875 6.52945313 6.484375 7.28515625 C6.65453125 7.85105469 6.8246875 8.41695312 7 9 C6.34 9.66 5.68 10.32 5 11 C4.72285156 10.37351563 4.44570313 9.74703125 4.16015625 9.1015625 C3.79792969 8.28429687 3.43570312 7.46703125 3.0625 6.625 C2.70285156 5.81289062 2.34320313 5.00078125 1.97265625 4.1640625 C1.3430097 2.76316215 0.68687358 1.37374716 0 0 Z " fill="#E9989B" transform="translate(347,189)"/>
<path d="M0 0 C0 0.66 0 1.32 0 2 C-3.3 2.33 -6.6 2.66 -10 3 C-10 2.34 -10 1.68 -10 1 C-6.61981469 -0.04005702 -3.5219721 -0.08004482 0 0 Z " fill="#E59494" transform="translate(322,267)"/>
<path d="M0 0 C4.51720311 -0.36625971 4.51720311 -0.36625971 6.8125 1.375 C8 3 8 3 8 5 C4.62496331 3.8141763 2.35277269 2.72426311 0 0 Z " fill="#E98D8E" transform="translate(239,295)"/>
<path d="M0 0 C2.625 0.375 2.625 0.375 5 1 C2.63707344 3.52588702 1.33537489 4.88820837 -2 6 C-2 2 -2 2 0 0 Z " fill="#E88587" transform="translate(340,289)"/>
<path d="M0 0 C0.33 0 0.66 0 1 0 C0.67 2.31 0.34 4.62 0 7 C-0.66 7 -1.32 7 -2 7 C-2.33 7.66 -2.66 8.32 -3 9 C-3 6.37886292 -2.68707555 4.49064888 -2 2 C-1.34 2 -0.68 2 0 2 C0 1.34 0 0.68 0 0 Z " fill="#EA868A" transform="translate(351,278)"/>
<path d="M0 0 C6.625 0.75 6.625 0.75 10 3 C10 3.66 10 4.32 10 5 C9.01 5 8.02 5 7 5 C7 4.34 7 3.68 7 3 C6.401875 2.87625 5.80375 2.7525 5.1875 2.625 C3 2 3 2 0 0 Z " fill="#E5A0A1" transform="translate(302,219)"/>
<path d="M0 0 C0.99 0 1.98 0 3 0 C2.71125 0.556875 2.4225 1.11375 2.125 1.6875 C0.9586747 4.08494645 -0.0339881 6.51596939 -1 9 C-1.33 9 -1.66 9 -2 9 C-2.25 3.375 -2.25 3.375 0 0 Z " fill="#E48E8E" transform="translate(227,188)"/>
<path d="M0 0 C0.33 0 0.66 0 1 0 C1.1875 2.875 1.1875 2.875 1 6 C0.01 6.66 -0.98 7.32 -2 8 C-2.6875 6.25 -2.6875 6.25 -3 4 C-1.625 1.75 -1.625 1.75 0 0 Z " fill="#ED868A" transform="translate(223,175)"/>
<path d="M0 0 C0.33 0 0.66 0 1 0 C1 2.31 1 4.62 1 7 C2.65 7.33 4.3 7.66 6 8 C6 8.66 6 9.32 6 10 C4.02 9.34 2.04 8.68 0 8 C0 5.36 0 2.72 0 0 Z " fill="#EDB0AD" transform="translate(314,155)"/>
<path d="M0 0 C1.67542976 0.28604898 3.34385343 0.61781233 5 1 C5 2.65 5 4.3 5 6 C4.01 6 3.02 6 2 6 C2.33 4.68 2.66 3.36 3 2 C1.68 1.67 0.36 1.34 -1 1 C-0.67 0.67 -0.34 0.34 0 0 Z " fill="#E87B7A" transform="translate(289,157)"/>
<path d="M0 0 C0.66 0 1.32 0 2 0 C2 1.98 2 3.96 2 6 C0.02 6.99 0.02 6.99 -2 8 C-1.47731534 5.23723823 -0.89130413 2.6739124 0 0 Z " fill="#E78487" transform="translate(304,154)"/>
<path d="M0 0 C0.66 0.66 1.32 1.32 2 2 C1.7578125 4.3828125 1.7578125 4.3828125 1.125 7.125 C0.92132813 8.03507813 0.71765625 8.94515625 0.5078125 9.8828125 C0.34023438 10.58148438 0.17265625 11.28015625 0 12 C-0.33 12 -0.66 12 -1 12 C-1.14285714 3.42857143 -1.14285714 3.42857143 0 0 Z " fill="#E8888A" transform="translate(294,131)"/>
<path d="M0 0 C0.33 0 0.66 0 1 0 C1.66 3.63 2.32 7.26 3 11 C2.34 11 1.68 11 1 11 C-0.20272819 8.59454362 -0.10071472 7.05003047 -0.0625 4.375 C-0.05347656 3.55773437 -0.04445312 2.74046875 -0.03515625 1.8984375 C-0.02355469 1.27195313 -0.01195312 0.64546875 0 0 Z " fill="#E59EA0" transform="translate(218,236)"/>
<path d="M0 0 C0.66 0 1.32 0 2 0 C1.32829194 3.8063457 0.27253436 7.35206816 -1 11 C-1.33 11 -1.66 11 -2 11 C-2.28571429 3.57142857 -2.28571429 3.57142857 0 0 Z " fill="#E89C9D" transform="translate(222,200)"/>
<path d="M0 0 C0.99 1.32 1.98 2.64 3 4 C2.1875 7.25 2.1875 7.25 1 10 C0.67 10 0.34 10 0 10 C0 6.7 0 3.4 0 0 Z " fill="#EF7277" transform="translate(290,163)"/>
<path d="M0 0 C1.2065625 0.0309375 1.2065625 0.0309375 2.4375 0.0625 C0.30969421 2.40308637 -1.67812221 3.76950306 -4.5625 5.0625 C-3.43829114 0.08386076 -3.43829114 0.08386076 0 0 Z " fill="#E28282" transform="translate(335.5625,294.9375)"/>
<path d="M0 0 C1.98 1.65 3.96 3.3 6 5 C5.34 5.66 4.68 6.32 4 7 C3.67 6.01 3.34 5.02 3 4 C1.68 4 0.36 4 -1 4 C-0.67 2.68 -0.34 1.36 0 0 Z " fill="#EE9497" transform="translate(234,273)"/>
<path d="M0 0 C1.32 1.65 2.64 3.3 4 5 C3.34 6.32 2.68 7.64 2 9 C1.67 9 1.34 9 1 9 C0.67 6.03 0.34 3.06 0 0 Z " fill="#E98C8C" transform="translate(226,261)"/>
<path d="M0 0 C0.66 0 1.32 0 2 0 C2.185625 0.9590625 2.185625 0.9590625 2.375 1.9375 C2.684375 2.9584375 2.684375 2.9584375 3 4 C3.66 4.33 4.32 4.66 5 5 C5 5.66 5 6.32 5 7 C2.525 6.01 2.525 6.01 0 5 C0 3.35 0 1.7 0 0 Z " fill="#E29694" transform="translate(233,249)"/>
<path d="M0 0 C-5.41538462 4.06153846 -5.41538462 4.06153846 -8.375 3.75 C-8.91125 3.5025 -9.4475 3.255 -10 3 C-3.375 -1.125 -3.375 -1.125 0 0 Z " fill="#E89E9E" transform="translate(254,153)"/>
</svg>
